Coordinates
version=1
nRows=11
nColumns=36
inDegrees=yes

Units are S.I. units (second, meters, Newtons, ...)
If the header above contains a line with 'inDegrees', this indicates whether rotational values are in degrees (yes) or radians (no).

endheader
time	pelvis_tilt	pelvis_list	pelvis_rotation	pelvis_tx	pelvis_ty	pelvis_tz	hip_flexion_r	hip_adduction_r	hip_rotation_r	knee_angle_r	knee_angle_r_beta	ankle_angle_r	subtalar_angle_r	mtp_angle_r	hip_flexion_l	hip_adduction_l	hip_rotation_l	knee_angle_l	knee_angle_l_beta	ankle_angle_l	subtalar_angle_l	mtp_angle_l	lumbar_extension	lumbar_bending	lumbar_rotation	arm_flex_r	arm_add_r	arm_rot_r	elbow_flex_r	pro_sup_r	arm_flex_l	arm_add_l	arm_rot_l	elbow_flex_l	pro_sup_l
      0.00000000	      6.79242715	     -1.28294117	      4.26697584	     -0.04456272	      0.89636629	     -0.24689403	     -9.03279733	     -7.74331227	     -9.15237662	      1.17762462	      0.02055343	     11.76302041	     -1.84150524	     -6.63060727	     -8.84099629	    -11.24345592	     -4.87421956	      0.10943688	      0.00191003	     14.24525602	      2.38544277	     -6.63060727	     -6.96535319	      1.15225954	      1.36687728	      2.22670909	     -9.01311595	      1.62972120	     21.93654176	     93.91370929	      6.88900450	     -7.74721433	      4.76858218	     19.81610915	     96.46475364
      0.01666670	      6.25182583	     -0.28540875	      1.41598726	     -0.04181794	      0.89640837	     -0.24463916	     -7.22210970	     -9.65316244	     -9.95279331	      2.26146240	      0.03946996	     12.81821880	      0.53220719	     -6.84142711	     -9.08949510	     -9.98082650	     -8.02401171	      0.13633995	      0.00237958	     12.43572132	      1.03074633	     -6.84142711	     -3.84095054	      0.04733884	      2.82409976	      3.31215200	     -8.90649701	      5.84257116	     18.43325925	     96.85506645	      5.48580381	     -7.88110960	      6.39877066	     18.54904083	     97.94549523
      0.03333330	      5.62268378	     -0.11292193	      1.41289238	     -0.04079669	      0.89638858	     -0.24435082	     -5.83986701	    -10.18209859	    -10.77614417	      3.63528779	      0.06344774	     13.02557697	      1.43978731	     -6.94623930	     -8.45858183	     -9.74838401	     -9.05870622	      0.19282907	      0.00336550	     10.76019784	     -0.35217828	     -6.94623930	     -1.97872134	     -0.11650595	      2.59577922	      3.00272737	     -8.69674724	      7.57738821	     17.69326656	     96.25267902	      5.33069397	     -8.05230276	      8.27639176	     17.59797416	     97.25808829
      0.05000000	      5.74741424	      0.19443582	      1.48263975	     -0.04104825	      0.89578255	     -0.24495030	     -5.59445437	    -10.78250009	    -12.26376098	      4.13872154	      0.07223432	     12.90789803	      2.50832728	     -7.02755441	     -8.50186211	     -9.37218957	     -9.73888516	      0.27059144	      0.00472271	      9.98872988	     -0.59602481	     -7.02755441	     -1.72941287	     -0.46454313	      2.69874492	      2.77291898	     -8.76820822	      9.05330716	     18.07488858	     95.70101921	      5.55610212	     -8.13723309	     10.29180814	     17.40574049	     96.94681700
      0.06666670	      5.87370691	      0.43592260	      1.67775319	     -0.04089420	      0.89644136	     -0.24510104	     -5.62643203	    -11.13011533	    -13.01122140	      4.33711168	      0.07569688	     12.71964007	      2.60102145	     -7.11984700	     -8.54201675	     -9.14121215	    -10.09255809	      0.33999749	      0.00593408	      9.51592981	     -0.43233370	     -7.11984700	     -1.68424646	     -0.68588012	      2.78092076	      2.48374398	     -8.86737997	     10.78328375	     18.52350583	     94.29578262	      5.75371898	     -8.33006067	     12.78381399	     17.36483404	     96.28957911
      0.08333330	      5.75925830	      0.67819093	      1.86069648	     -0.04073827	      0.89659502	     -0.24528562	     -5.58835031	    -11.43745646	    -13.56913062	      4.23904770	      0.07398534	     12.45799624	      2.24806424	     -7.17353311	     -8.35999883	     -8.92348693	     -9.96047944	      0.39496807	      0.00689349	      9.27181884	     -0.50479376	     -7.17353311	     -1.37036761	     -0.97082973	      2.77899457	      2.25784587	     -8.87245469	     12.14834523	     18.70661814	     93.28204341	      5.87324708	     -8.50095769	     14.76770054	     17.19705435	     95.97788429
      0.10000000	      5.56414665	      0.84797832	      2.15858002	     -0.03999428	      0.89691689	     -0.24539977	     -5.62542088	    -11.59691856	    -13.91485437	      3.93266740	      0.06863799	     12.14988879	      1.58947793	     -7.18985823	     -8.08398817	     -8.80661129	     -9.75623572	      0.43333299	      0.00756309	      9.10795435	     -0.41906637	     -7.18985823	     -1.02553549	     -1.18445778	      2.63828949	      1.99617273	     -8.93681491	     13.39454669	     19.14350663	     91.82111730	      5.80562859	     -8.79001612	     16.61124806	     17.37959145	     95.36301707
      0.11666670	      5.31886925	      0.97431101	      2.50542764	     -0.03962977	      0.90046291	     -0.24605070	     -5.66558483	    -11.69073603	    -14.39964379	      3.59585242	      0.06275946	     12.01417891	      1.27193414	     -7.23910757	     -7.74602332	     -8.73167569	     -9.57541888	      0.45006570	      0.00785513	      8.96062264	     -0.29899046	     -7.23910757	     -0.55700188	     -1.36754906	      2.41772948	      1.75958793	     -8.93328494	     14.80354935	     19.14453767	     90.78712871	      5.72824334	     -9.10139766	     18.65412378	     17.46358067	     95.02529841
      0.13333330	      5.04543144	      1.04973420	      2.86776382	     -0.03883525	      0.89663270	     -0.24594049	     -5.72074671	    -11.70713221	    -14.82865132	      3.14844705	      0.05495077	     11.87647429	      0.87557503	     -7.30490432	     -7.38294201	     -8.68566998	     -9.38743843	      0.43472951	      0.00758746	      8.95604191	     -0.02254080	     -7.30490432	     -0.07672944	     -1.51135756	      2.19805462	      1.49292538	     -9.02264473	     16.60320801	     19.34822576	     88.33221981	      5.67952222	     -9.39401032	     20.95311962	     17.59637684	     93.13214577
      0.15000000	      4.89410455	      1.04739302	      3.24751866	     -0.03877198	      0.90001668	     -0.24673336	     -5.89197957	    -11.60879913	    -15.24990131	      2.71843972	      0.04744572	     11.73367878	      0.55055553	     -7.30729120	     -7.09681936	     -8.74087689	     -9.24041982	      0.40854862	      0.00713052	      9.01219476	      0.19803829	     -7.30729120	      0.23309176	     -1.58928463	      1.98129211	      1.23876400	     -8.92706501	     16.74569466	     19.43987735	     88.36403721	      5.58231013	     -9.48336249	     21.18185463	     17.71049507	     93.29202104
      0.16666670	      4.74375117	      0.99541449	      3.63484328	     -0.03827666	      0.89994905	     -0.24700760	     -6.02401393	    -11.44752607	    -15.58086859	      2.38130420	      0.04156160	     11.67175952	      0.14634153	     -7.32119177	     -6.80777605	     -8.83488265	     -9.21785551	      0.38379633	      0.00669851	      8.99372388	      0.43670235	     -7.32119177	      0.53204258	     -1.58707023	      1.59384086	      1.08477607	     -8.86801402	     17.28202064	     19.48565366	     86.99044590	      5.39963213	     -9.66043038	     21.96189880	     17.90671465	     92.08876946
